<svg xmlns="http://www.w3.org/2000/svg" width="139" height="32" viewBox="0 0 139 32">
    <g fill="none" fill-rule="evenodd">
        <path fill-rule="nonzero" d="M0 0H138.667V32H0z"/>
        <g>
            <path fill="#FBC753" d="M38.536.441l.762.433v.86l-7.654 4.321-.066-.037v8.256l-.697.413-.706-.422V6.013l-.073.042-7.646-4.31V.871l.762-.43 7.66 4.317v.006L38.535.441z" transform="translate(.702 8.752)"/>
            <path fill="#92C74C" d="M69.531.512l7.662 4.316v.077l7.66-4.323.761.432v.86l-7.652 4.322-.068-.038v8.186l-.7.413-.703-.422v-8.25l-.07.04-7.65-4.31V.941l.76-.43z" transform="translate(.702 8.752)"/>
            <path fill="#EE5A85" d="M136.08.512l.762.43v.86l-7.654 4.324-.066-.037v8.185l-.697.413-.706-.423v-8.18l-.073.042L120 1.815V.94l.762-.43 7.66 4.316v.006L136.08.512z" transform="translate(.702 8.752)"/>
            <path fill="#000" d="M116.077 3.209l3.375 7.125h-6.785l3.41-7.125zM121.7 15.1l1.07.086.598-.85-6.682-14.13h-1.21l-6.711 14.13.592.85 1.068-.086 1.51-3.157h8.262l1.503 3.157zM44.291 3.21l3.378 7.125h-6.785l3.407-7.125zM49.924 15.1l1.065.086.597-.85L44.907.206H43.7l-6.713 14.13.594.85 1.065-.086 1.502-3.157h8.27l1.507 3.157zM16.974 3.21l3.376 7.125h-6.785l3.41-7.125zm5.63 11.892l1.07.086.595-.85L17.587.206h-1.205l-6.719 14.13.598.85 1.067-.086 1.505-3.157h8.265l1.506 3.157zM55.585.177h-1.36v14.582l.927.464.922-.464V3.847l8.81 11.327h1.364V.67l-.94-.492-.913.492V11.48L55.585.177zm54.584.868l-.515-.858-1.147.051-5.548 11.826L97.347.274l-1.12-.087-.598.858 2.138 4.514-3.11 6.593L88.977.257 87.85.187l-.613.858 6.771 14.13h1.171l3.56-7.588 3.617 7.587h1.197l6.615-14.129zM1.853 1.681h1.974c1.213 0 2.123.29 2.752.91.54.532.817 1.29.817 2.228 0 1.069-.384 1.876-1.044 2.41-.65.51-1.523.75-2.525.75-.975 0-1.586-.047-1.974-.104V1.68zm1.974 7.93c1.554 0 3.013-.48 4.025-1.355.944-.825 1.523-1.994 1.523-3.437 0-1.419-.476-2.534-1.263-3.343C7.155.496 5.702 0 3.827 0H0v14.707l.928.516.925-.516v-5.18c.388.05 1.21.083 1.974.083z" transform="translate(.702 8.752)"/>
        </g>
    </g>
</svg>
